<svg width="256" height="128" viewBox="0 0 256 128" fill="none" xmlns="http://www.w3.org/2000/svg">
<path d="M76.0763 31L74.2268 24.4545H75.7993L76.9499 29.0568H77.0095L78.1857 24.4545H79.7411L80.9172 29.0312H80.9811L82.1146 24.4545H83.6913L81.8376 31H80.2311L79.0038 26.5767H78.9143L77.6871 31H76.0763ZM86.7192 31L84.8698 24.4545H86.4423L87.5928 29.0568H87.6525L88.8286 24.4545H90.384L91.5602 29.0312H91.6241L92.7576 24.4545H94.3343L92.4806 31H90.8741L89.6468 26.5767H89.5573L88.33 31H86.7192ZM97.3622 31L95.5128 24.4545H97.0852L98.2358 29.0568H98.2955L99.4716 24.4545H101.027L102.203 29.0312H102.267L103.401 24.4545H104.977L103.124 31H101.517L100.29 26.5767H100.2L98.973 31H97.3622ZM106.714 31.0938C106.455 31.0938 106.234 31.0028 106.049 30.821C105.865 30.6392 105.774 30.4176 105.776 30.1562C105.774 29.9006 105.865 29.6818 106.049 29.5C106.234 29.3182 106.455 29.2273 106.714 29.2273C106.964 29.2273 107.181 29.3182 107.366 29.5C107.553 29.6818 107.649 29.9006 107.651 30.1562C107.649 30.3295 107.603 30.4872 107.515 30.6293C107.43 30.7713 107.316 30.8849 107.174 30.9702C107.035 31.0526 106.882 31.0938 106.714 31.0938ZM111.387 27.1648V31H109.844V24.4545H111.319V25.5668H111.395C111.546 25.2003 111.786 24.9091 112.115 24.6932C112.448 24.4773 112.858 24.3693 113.347 24.3693C113.799 24.3693 114.192 24.4659 114.527 24.6591C114.865 24.8523 115.127 25.1321 115.312 25.4986C115.499 25.8651 115.591 26.3097 115.588 26.8324V31H114.046V27.071C114.046 26.6335 113.932 26.2912 113.705 26.044C113.481 25.7969 113.169 25.6733 112.772 25.6733C112.502 25.6733 112.262 25.733 112.052 25.8523C111.844 25.9687 111.681 26.1378 111.562 26.3594C111.445 26.581 111.387 26.8494 111.387 27.1648ZM120.654 31.1278C119.998 31.1278 119.431 30.9915 118.954 30.7188C118.48 30.4432 118.115 30.054 117.859 29.5511C117.603 29.0455 117.475 28.4503 117.475 27.7656C117.475 27.0923 117.603 26.5014 117.859 25.9929C118.117 25.4815 118.478 25.0838 118.941 24.7997C119.404 24.5128 119.948 24.3693 120.573 24.3693C120.977 24.3693 121.358 24.4347 121.715 24.5653C122.076 24.6932 122.394 24.892 122.67 25.1619C122.948 25.4318 123.167 25.7756 123.326 26.1932C123.485 26.608 123.565 27.1023 123.565 27.6761V28.1491H118.2V27.1094H122.086C122.083 26.8139 122.019 26.5511 121.894 26.321C121.769 26.0881 121.595 25.9048 121.37 25.7713C121.149 25.6378 120.89 25.571 120.595 25.571C120.279 25.571 120.002 25.6477 119.764 25.8011C119.525 25.9517 119.339 26.1506 119.206 26.3977C119.075 26.642 119.008 26.9105 119.005 27.2031V28.1108C119.005 28.4915 119.075 28.8182 119.214 29.0909C119.353 29.3608 119.548 29.5682 119.798 29.7131C120.048 29.8551 120.34 29.9261 120.676 29.9261C120.9 29.9261 121.103 29.8949 121.285 29.8324C121.467 29.767 121.625 29.6719 121.758 29.5469C121.892 29.4219 121.992 29.267 122.061 29.0824L123.501 29.2443C123.41 29.625 123.237 29.9574 122.981 30.2415C122.728 30.5227 122.404 30.7415 122.01 30.8977C121.615 31.0511 121.163 31.1278 120.654 31.1278ZM128.325 31.1278C127.672 31.1278 127.111 30.9844 126.642 30.6974C126.176 30.4105 125.817 30.0142 125.564 29.5085C125.314 29 125.189 28.4148 125.189 27.7528C125.189 27.0881 125.317 26.5014 125.572 25.9929C125.828 25.4815 126.189 25.0838 126.655 24.7997C127.123 24.5128 127.677 24.3693 128.317 24.3693C128.848 24.3693 129.318 24.4673 129.727 24.6634C130.139 24.8565 130.467 25.1307 130.711 25.4858C130.956 25.8381 131.095 26.25 131.129 26.7216H129.655C129.595 26.4062 129.453 26.1435 129.228 25.9332C129.007 25.7202 128.71 25.6136 128.338 25.6136C128.023 25.6136 127.746 25.6989 127.507 25.8693C127.268 26.0369 127.082 26.2784 126.949 26.5938C126.818 26.9091 126.753 27.2869 126.753 27.7273C126.753 28.1733 126.818 28.5568 126.949 28.8778C127.079 29.196 127.263 29.4418 127.498 29.6151C127.737 29.7855 128.017 29.8707 128.338 29.8707C128.565 29.8707 128.768 29.8281 128.947 29.7429C129.129 29.6548 129.281 29.5284 129.403 29.3636C129.525 29.1989 129.609 28.9986 129.655 28.7628H131.129C131.092 29.2259 130.956 29.6364 130.72 29.9943C130.484 30.3494 130.163 30.6278 129.757 30.8295C129.351 31.0284 128.873 31.1278 128.325 31.1278ZM136.264 24.4545V25.6477H132.501V24.4545H136.264ZM133.43 22.8864H134.973V29.0312C134.973 29.2386 135.004 29.3977 135.067 29.5085C135.132 29.6165 135.217 29.6903 135.322 29.7301C135.428 29.7699 135.544 29.7898 135.672 29.7898C135.768 29.7898 135.857 29.7827 135.936 29.7685C136.018 29.7543 136.081 29.7415 136.124 29.7301L136.384 30.9361C136.301 30.9645 136.183 30.9957 136.03 31.0298C135.879 31.0639 135.695 31.0838 135.476 31.0895C135.089 31.1009 134.741 31.0426 134.432 30.9148C134.122 30.7841 133.876 30.5824 133.695 30.3097C133.516 30.0369 133.428 29.696 133.43 29.2869V22.8864ZM138.154 31V24.4545H139.697V31H138.154ZM138.93 23.5256C138.686 23.5256 138.475 23.4446 138.299 23.2827C138.123 23.1179 138.035 22.9205 138.035 22.6903C138.035 22.4574 138.123 22.2599 138.299 22.098C138.475 21.9332 138.686 21.8509 138.93 21.8509C139.177 21.8509 139.387 21.9332 139.561 22.098C139.737 22.2599 139.825 22.4574 139.825 22.6903C139.825 22.9205 139.737 23.1179 139.561 23.2827C139.387 23.4446 139.177 23.5256 138.93 23.5256ZM143.145 24.4545L144.466 26.8707L145.808 24.4545H147.44L145.467 27.7273L147.474 31H145.851L144.466 28.6435L143.093 31H141.457L143.451 27.7273L141.508 24.4545H143.145ZM150.184 31.0938C149.925 31.0938 149.703 31.0028 149.519 30.821C149.334 30.6392 149.243 30.4176 149.246 30.1562C149.243 29.9006 149.334 29.6818 149.519 29.5C149.703 29.3182 149.925 29.2273 150.184 29.2273C150.434 29.2273 150.651 29.3182 150.836 29.5C151.023 29.6818 151.118 29.9006 151.121 30.1562C151.118 30.3295 151.073 30.4872 150.985 30.6293C150.899 30.7713 150.786 30.8849 150.644 30.9702C150.505 31.0526 150.351 31.0938 150.184 31.0938ZM158.487 26.1847L157.081 26.3381C157.041 26.196 156.971 26.0625 156.872 25.9375C156.775 25.8125 156.645 25.7116 156.48 25.6349C156.315 25.5582 156.113 25.5199 155.875 25.5199C155.554 25.5199 155.284 25.5895 155.065 25.7287C154.849 25.8679 154.743 26.0483 154.746 26.2699C154.743 26.4602 154.812 26.6151 154.954 26.7344C155.099 26.8537 155.338 26.9517 155.67 27.0284L156.787 27.267C157.406 27.4006 157.866 27.6122 158.167 27.902C158.471 28.1918 158.625 28.571 158.628 29.0398C158.625 29.4517 158.504 29.8153 158.265 30.1307C158.03 30.4432 157.701 30.6875 157.281 30.8636C156.861 31.0398 156.378 31.1278 155.832 31.1278C155.031 31.1278 154.386 30.9602 153.898 30.625C153.409 30.2869 153.118 29.8168 153.024 29.2145L154.528 29.0696C154.596 29.3651 154.741 29.5881 154.963 29.7386C155.184 29.8892 155.473 29.9645 155.828 29.9645C156.194 29.9645 156.488 29.8892 156.71 29.7386C156.934 29.5881 157.047 29.402 157.047 29.1804C157.047 28.9929 156.974 28.8381 156.829 28.7159C156.687 28.5937 156.466 28.5 156.165 28.4347L155.048 28.2003C154.42 28.0696 153.956 27.8494 153.655 27.5398C153.353 27.2273 153.204 26.8324 153.207 26.3551C153.204 25.9517 153.314 25.6023 153.535 25.3068C153.76 25.0085 154.071 24.7784 154.469 24.6165C154.869 24.4517 155.331 24.3693 155.853 24.3693C156.621 24.3693 157.224 24.5327 157.665 24.8594C158.108 25.1861 158.382 25.6278 158.487 26.1847ZM162.042 27.1648V31H160.5V22.2727H162.008V25.5668H162.085C162.238 25.1974 162.475 24.9062 162.797 24.6932C163.12 24.4773 163.532 24.3693 164.032 24.3693C164.487 24.3693 164.883 24.4645 165.221 24.6548C165.559 24.8452 165.821 25.1236 166.005 25.4901C166.193 25.8565 166.287 26.304 166.287 26.8324V31H164.744V27.071C164.744 26.6307 164.63 26.2884 164.403 26.044C164.179 25.7969 163.863 25.6733 163.457 25.6733C163.184 25.6733 162.94 25.733 162.724 25.8523C162.511 25.9687 162.343 26.1378 162.221 26.3594C162.102 26.581 162.042 26.8494 162.042 27.1648ZM171.314 31.1278C170.675 31.1278 170.121 30.9872 169.652 30.706C169.183 30.4247 168.82 30.0312 168.561 29.5256C168.306 29.0199 168.178 28.429 168.178 27.7528C168.178 27.0767 168.306 26.4844 168.561 25.9759C168.82 25.4673 169.183 25.0724 169.652 24.7912C170.121 24.5099 170.675 24.3693 171.314 24.3693C171.953 24.3693 172.507 24.5099 172.976 24.7912C173.445 25.0724 173.807 25.4673 174.063 25.9759C174.321 26.4844 174.451 27.0767 174.451 27.7528C174.451 28.429 174.321 29.0199 174.063 29.5256C173.807 30.0312 173.445 30.4247 172.976 30.706C172.507 30.9872 171.953 31.1278 171.314 31.1278ZM171.323 29.892C171.669 29.892 171.959 29.7969 172.192 29.6065C172.425 29.4134 172.598 29.1548 172.712 28.831C172.828 28.5071 172.887 28.1463 172.887 27.7486C172.887 27.348 172.828 26.9858 172.712 26.6619C172.598 26.3352 172.425 26.0753 172.192 25.8821C171.959 25.6889 171.669 25.5923 171.323 25.5923C170.968 25.5923 170.672 25.6889 170.436 25.8821C170.203 26.0753 170.029 26.3352 169.912 26.6619C169.799 26.9858 169.742 27.348 169.742 27.7486C169.742 28.1463 169.799 28.5071 169.912 28.831C170.029 29.1548 170.203 29.4134 170.436 29.6065C170.672 29.7969 170.968 29.892 171.323 29.892ZM176.36 33.4545V24.4545H177.877V25.5369H177.966C178.046 25.3778 178.158 25.2088 178.303 25.0298C178.448 24.848 178.644 24.6932 178.891 24.5653C179.138 24.4347 179.454 24.3693 179.837 24.3693C180.343 24.3693 180.799 24.4986 181.205 24.7571C181.614 25.0128 181.938 25.392 182.177 25.8949C182.418 26.3949 182.539 27.0085 182.539 27.7358C182.539 28.4545 182.421 29.0653 182.185 29.5682C181.949 30.071 181.628 30.4545 181.222 30.7188C180.816 30.983 180.356 31.1151 179.841 31.1151C179.466 31.1151 179.155 31.0526 178.908 30.9276C178.661 30.8026 178.462 30.652 178.312 30.4759C178.164 30.2969 178.049 30.1278 177.966 29.9688H177.902V33.4545H176.36ZM177.873 27.7273C177.873 28.1506 177.932 28.5213 178.052 28.8395C178.174 29.1577 178.348 29.4062 178.576 29.5852C178.806 29.7614 179.084 29.8494 179.411 29.8494C179.752 29.8494 180.037 29.7585 180.267 29.5767C180.498 29.392 180.671 29.1406 180.787 28.8224C180.907 28.5014 180.966 28.1364 180.966 27.7273C180.966 27.321 180.908 26.9602 180.792 26.6449C180.675 26.3295 180.502 26.0824 180.272 25.9034C180.042 25.7244 179.755 25.6349 179.411 25.6349C179.081 25.6349 178.802 25.7216 178.571 25.8949C178.341 26.0682 178.167 26.3111 178.047 26.6236C177.931 26.9361 177.873 27.304 177.873 27.7273Z" fill="white"/>
<g clip-path="url(#clip0_102_82)">
<path d="M32 74C32 87.7528 32.0364 99 32.085 99C32.1579 99 42.0554 97.288 43.2698 97.0612L43.9013 96.9478V87.7642V78.5918H47.666H51.4307V76.9138C51.4307 75.9955 51.4672 73.6032 51.5158 71.585L51.5886 67.9342H47.751H43.9013V63.9093V59.8844H48.334C50.775 59.8844 52.7666 59.8617 52.7666 59.8277C52.7666 59.7029 53.7381 50.0204 53.7989 49.5329L53.8717 49H42.9298H32V74Z" fill="white"/>
<path d="M213.653 50.4626L203.962 51.2109V73.7959V96.381L204.363 96.4376C204.715 96.4943 223.478 97.7642 223.854 97.7528C223.964 97.7528 224 96.551 224 92.1406V86.5283H219.871H215.742V82.4467V78.3651H219.264H222.786V73.4898V68.6145H219.142H215.499V65.3832V62.1519L215.778 62.1066C215.924 62.0726 217.163 62.0272 218.535 61.9819C219.908 61.9479 221.693 61.8912 222.519 61.8458L224 61.7778V55.7347V49.6803L223.672 49.6916C223.478 49.703 218.972 50.0431 213.653 50.4626Z" fill="white"/>
<path d="M151.438 52.0272C151.56 53.161 152.944 70.2472 152.92 70.2698C152.908 70.2925 151.123 66.1995 148.949 61.1769C146.787 56.1542 144.966 51.9932 144.917 51.9138C144.844 51.7891 141.492 52.3673 135.991 53.4558L135.469 53.5578V73.0476V92.5374H140.873H146.277L146.216 91.7211C146.095 90.2018 145.646 77.6395 145.694 77.1406C145.731 76.6984 146.095 77.4694 149.544 85.2472C151.633 89.9751 153.406 93.8866 153.454 93.9546C153.527 94.0227 155.215 93.9206 158.081 93.6939C160.571 93.4898 162.611 93.3084 162.611 93.2971C162.623 93.2857 162.562 85.1111 162.477 75.1338C162.392 65.1565 162.32 55.7347 162.32 54.1814L162.307 51.381H156.843H151.366L151.438 52.0272Z" fill="white"/>
<path d="M65.943 52.0726C58.6807 52.5261 54.6853 57.1633 53.4223 66.5737C53.1673 68.5238 53.058 75.1451 53.2401 77.4581C53.8473 84.9637 56.0211 89.839 59.883 92.322C61.9597 93.6485 65.0807 94.3628 68.1654 94.1927C71.675 94.0113 74.0674 93.0816 76.217 91.0748C77.9779 89.4308 78.9373 87.8889 79.8602 85.2585C81.1475 81.585 81.7304 76.0975 81.439 70.3832C81.1111 63.9887 80.0788 60.0091 77.9536 56.9592C75.9255 54.0567 72.7194 52.322 68.979 52.1066C68.3839 52.0726 67.7524 52.0385 67.5824 52.0159C67.4124 52.0045 66.6838 52.0272 65.943 52.0726ZM67.6553 60.9841C68.5418 61.8798 68.9183 65.4512 68.9183 73.093C68.9183 82.5034 68.2868 86.415 66.9024 85.576C66.3073 85.2018 65.858 83.3764 65.6394 80.3492C65.4815 78.1383 65.4815 68.0136 65.6394 65.8934C65.8701 62.9002 66.283 61.2449 66.9024 60.8481C67.2424 60.6213 67.3031 60.6327 67.6553 60.9841Z" fill="white"/>
<path d="M83.0056 72.6848V93.3311H88.5798H94.1419L94.2147 91.8912C94.2633 91.0862 94.3605 88.4785 94.4333 86.0748C94.5062 83.6712 94.6033 81.5624 94.6519 81.3923C94.7126 81.1542 95.2348 82.6848 96.8379 87.8549C98.0037 91.585 98.9874 94.6803 99.036 94.7256C99.1331 94.8277 110.524 93.9887 110.646 93.8753C110.682 93.8299 109.419 90.1224 107.841 85.61L104.974 77.424L105.582 76.9252C107.598 75.2812 109.261 72.1066 109.735 68.966C109.941 67.5941 109.808 64.1927 109.492 62.9342C108.278 58.0023 105.06 54.1701 100.955 52.7415C99.1696 52.1293 99.3153 52.1406 90.8751 52.0952L83.0056 52.0499V72.6848ZM95.5263 61.8231C96.3885 62.22 97.0929 63.2404 97.4694 64.6463C97.7244 65.5873 97.688 68.5692 97.4087 69.5215C96.8865 71.3129 95.9635 72.356 94.579 72.7528L94.2997 72.8209V67.1519V61.4717L94.7005 61.551C94.9069 61.585 95.2834 61.7097 95.5263 61.8231Z" fill="white"/>
<path d="M110.087 57.4467V62.7188H113.184H116.281V77.9116V93.1043H122.11H127.939V78.8186V64.5329H131.097H134.254V59.2608V53.9887L133.987 53.9433C133.732 53.8866 110.573 52.1633 110.245 52.1746C110.124 52.1746 110.087 53.3084 110.087 57.4467Z" fill="white"/>
<path d="M164.858 73.8866V94.4649H170.869H176.88V73.8866V53.3084H170.869H164.858V73.8866Z" fill="white"/>
<path d="M190.603 54.737C184.021 55.0658 178.544 55.3379 178.435 55.3379C178.228 55.3492 178.216 55.678 178.216 60.678V66.0068H181.313H184.41V80.9161V95.8254H190.3H196.19V80.2925V64.7596H199.469H202.748V59.4308C202.748 56.4943 202.711 54.1134 202.663 54.1134C202.602 54.1247 197.186 54.3968 190.603 54.737Z" fill="white"/>
</g>
<defs>
<clipPath id="clip0_102_82">
<rect width="192" height="50" fill="white" transform="translate(32 49)"/>
</clipPath>
</defs>
</svg>
