<svg width="256" height="128" viewBox="0 0 256 128" fill="none" xmlns="http://www.w3.org/2000/svg">
<path d="M76.0763 31L74.2268 24.4545H75.7993L76.9499 29.0568H77.0095L78.1857 24.4545H79.7411L80.9172 29.0312H80.9811L82.1146 24.4545H83.6913L81.8376 31H80.2311L79.0038 26.5767H78.9143L77.6871 31H76.0763ZM86.7192 31L84.8698 24.4545H86.4423L87.5928 29.0568H87.6525L88.8286 24.4545H90.384L91.5602 29.0312H91.6241L92.7576 24.4545H94.3343L92.4806 31H90.8741L89.6468 26.5767H89.5573L88.33 31H86.7192ZM97.3622 31L95.5128 24.4545H97.0852L98.2358 29.0568H98.2955L99.4716 24.4545H101.027L102.203 29.0312H102.267L103.401 24.4545H104.977L103.124 31H101.517L100.29 26.5767H100.2L98.973 31H97.3622ZM106.714 31.0938C106.455 31.0938 106.234 31.0028 106.049 30.821C105.865 30.6392 105.774 30.4176 105.776 30.1562C105.774 29.9006 105.865 29.6818 106.049 29.5C106.234 29.3182 106.455 29.2273 106.714 29.2273C106.964 29.2273 107.181 29.3182 107.366 29.5C107.553 29.6818 107.649 29.9006 107.651 30.1562C107.649 30.3295 107.603 30.4872 107.515 30.6293C107.43 30.7713 107.316 30.8849 107.174 30.9702C107.035 31.0526 106.882 31.0938 106.714 31.0938ZM111.387 27.1648V31H109.844V24.4545H111.319V25.5668H111.395C111.546 25.2003 111.786 24.9091 112.115 24.6932C112.448 24.4773 112.858 24.3693 113.347 24.3693C113.799 24.3693 114.192 24.4659 114.527 24.6591C114.865 24.8523 115.127 25.1321 115.312 25.4986C115.499 25.8651 115.591 26.3097 115.588 26.8324V31H114.046V27.071C114.046 26.6335 113.932 26.2912 113.705 26.044C113.481 25.7969 113.169 25.6733 112.772 25.6733C112.502 25.6733 112.262 25.733 112.052 25.8523C111.844 25.9687 111.681 26.1378 111.562 26.3594C111.445 26.581 111.387 26.8494 111.387 27.1648ZM120.654 31.1278C119.998 31.1278 119.431 30.9915 118.954 30.7188C118.48 30.4432 118.115 30.054 117.859 29.5511C117.603 29.0455 117.475 28.4503 117.475 27.7656C117.475 27.0923 117.603 26.5014 117.859 25.9929C118.117 25.4815 118.478 25.0838 118.941 24.7997C119.404 24.5128 119.948 24.3693 120.573 24.3693C120.977 24.3693 121.358 24.4347 121.715 24.5653C122.076 24.6932 122.394 24.892 122.67 25.1619C122.948 25.4318 123.167 25.7756 123.326 26.1932C123.485 26.608 123.565 27.1023 123.565 27.6761V28.1491H118.2V27.1094H122.086C122.083 26.8139 122.019 26.5511 121.894 26.321C121.769 26.0881 121.595 25.9048 121.37 25.7713C121.149 25.6378 120.89 25.571 120.595 25.571C120.279 25.571 120.002 25.6477 119.764 25.8011C119.525 25.9517 119.339 26.1506 119.206 26.3977C119.075 26.642 119.008 26.9105 119.005 27.2031V28.1108C119.005 28.4915 119.075 28.8182 119.214 29.0909C119.353 29.3608 119.548 29.5682 119.798 29.7131C120.048 29.8551 120.34 29.9261 120.676 29.9261C120.9 29.9261 121.103 29.8949 121.285 29.8324C121.467 29.767 121.625 29.6719 121.758 29.5469C121.892 29.4219 121.992 29.267 122.061 29.0824L123.501 29.2443C123.41 29.625 123.237 29.9574 122.981 30.2415C122.728 30.5227 122.404 30.7415 122.01 30.8977C121.615 31.0511 121.163 31.1278 120.654 31.1278ZM128.325 31.1278C127.672 31.1278 127.111 30.9844 126.642 30.6974C126.176 30.4105 125.817 30.0142 125.564 29.5085C125.314 29 125.189 28.4148 125.189 27.7528C125.189 27.0881 125.317 26.5014 125.572 25.9929C125.828 25.4815 126.189 25.0838 126.655 24.7997C127.123 24.5128 127.677 24.3693 128.317 24.3693C128.848 24.3693 129.318 24.4673 129.727 24.6634C130.139 24.8565 130.467 25.1307 130.711 25.4858C130.956 25.8381 131.095 26.25 131.129 26.7216H129.655C129.595 26.4062 129.453 26.1435 129.228 25.9332C129.007 25.7202 128.71 25.6136 128.338 25.6136C128.023 25.6136 127.746 25.6989 127.507 25.8693C127.268 26.0369 127.082 26.2784 126.949 26.5938C126.818 26.9091 126.753 27.2869 126.753 27.7273C126.753 28.1733 126.818 28.5568 126.949 28.8778C127.079 29.196 127.263 29.4418 127.498 29.6151C127.737 29.7855 128.017 29.8707 128.338 29.8707C128.565 29.8707 128.768 29.8281 128.947 29.7429C129.129 29.6548 129.281 29.5284 129.403 29.3636C129.525 29.1989 129.609 28.9986 129.655 28.7628H131.129C131.092 29.2259 130.956 29.6364 130.72 29.9943C130.484 30.3494 130.163 30.6278 129.757 30.8295C129.351 31.0284 128.873 31.1278 128.325 31.1278ZM136.264 24.4545V25.6477H132.501V24.4545H136.264ZM133.43 22.8864H134.973V29.0312C134.973 29.2386 135.004 29.3977 135.067 29.5085C135.132 29.6165 135.217 29.6903 135.322 29.7301C135.428 29.7699 135.544 29.7898 135.672 29.7898C135.768 29.7898 135.857 29.7827 135.936 29.7685C136.018 29.7543 136.081 29.7415 136.124 29.7301L136.384 30.9361C136.301 30.9645 136.183 30.9957 136.03 31.0298C135.879 31.0639 135.695 31.0838 135.476 31.0895C135.089 31.1009 134.741 31.0426 134.432 30.9148C134.122 30.7841 133.876 30.5824 133.695 30.3097C133.516 30.0369 133.428 29.696 133.43 29.2869V22.8864ZM138.154 31V24.4545H139.697V31H138.154ZM138.93 23.5256C138.686 23.5256 138.475 23.4446 138.299 23.2827C138.123 23.1179 138.035 22.9205 138.035 22.6903C138.035 22.4574 138.123 22.2599 138.299 22.098C138.475 21.9332 138.686 21.8509 138.93 21.8509C139.177 21.8509 139.387 21.9332 139.561 22.098C139.737 22.2599 139.825 22.4574 139.825 22.6903C139.825 22.9205 139.737 23.1179 139.561 23.2827C139.387 23.4446 139.177 23.5256 138.93 23.5256ZM143.145 24.4545L144.466 26.8707L145.808 24.4545H147.44L145.467 27.7273L147.474 31H145.851L144.466 28.6435L143.093 31H141.457L143.451 27.7273L141.508 24.4545H143.145ZM150.184 31.0938C149.925 31.0938 149.703 31.0028 149.519 30.821C149.334 30.6392 149.243 30.4176 149.246 30.1562C149.243 29.9006 149.334 29.6818 149.519 29.5C149.703 29.3182 149.925 29.2273 150.184 29.2273C150.434 29.2273 150.651 29.3182 150.836 29.5C151.023 29.6818 151.118 29.9006 151.121 30.1562C151.118 30.3295 151.073 30.4872 150.985 30.6293C150.899 30.7713 150.786 30.8849 150.644 30.9702C150.505 31.0526 150.351 31.0938 150.184 31.0938ZM158.487 26.1847L157.081 26.3381C157.041 26.196 156.971 26.0625 156.872 25.9375C156.775 25.8125 156.645 25.7116 156.48 25.6349C156.315 25.5582 156.113 25.5199 155.875 25.5199C155.554 25.5199 155.284 25.5895 155.065 25.7287C154.849 25.8679 154.743 26.0483 154.746 26.2699C154.743 26.4602 154.812 26.6151 154.954 26.7344C155.099 26.8537 155.338 26.9517 155.67 27.0284L156.787 27.267C157.406 27.4006 157.866 27.6122 158.167 27.902C158.471 28.1918 158.625 28.571 158.628 29.0398C158.625 29.4517 158.504 29.8153 158.265 30.1307C158.03 30.4432 157.701 30.6875 157.281 30.8636C156.861 31.0398 156.378 31.1278 155.832 31.1278C155.031 31.1278 154.386 30.9602 153.898 30.625C153.409 30.2869 153.118 29.8168 153.024 29.2145L154.528 29.0696C154.596 29.3651 154.741 29.5881 154.963 29.7386C155.184 29.8892 155.473 29.9645 155.828 29.9645C156.194 29.9645 156.488 29.8892 156.71 29.7386C156.934 29.5881 157.047 29.402 157.047 29.1804C157.047 28.9929 156.974 28.8381 156.829 28.7159C156.687 28.5937 156.466 28.5 156.165 28.4347L155.048 28.2003C154.42 28.0696 153.956 27.8494 153.655 27.5398C153.353 27.2273 153.204 26.8324 153.207 26.3551C153.204 25.9517 153.314 25.6023 153.535 25.3068C153.76 25.0085 154.071 24.7784 154.469 24.6165C154.869 24.4517 155.331 24.3693 155.853 24.3693C156.621 24.3693 157.224 24.5327 157.665 24.8594C158.108 25.1861 158.382 25.6278 158.487 26.1847ZM162.042 27.1648V31H160.5V22.2727H162.008V25.5668H162.085C162.238 25.1974 162.475 24.9062 162.797 24.6932C163.12 24.4773 163.532 24.3693 164.032 24.3693C164.487 24.3693 164.883 24.4645 165.221 24.6548C165.559 24.8452 165.821 25.1236 166.005 25.4901C166.193 25.8565 166.287 26.304 166.287 26.8324V31H164.744V27.071C164.744 26.6307 164.63 26.2884 164.403 26.044C164.179 25.7969 163.863 25.6733 163.457 25.6733C163.184 25.6733 162.94 25.733 162.724 25.8523C162.511 25.9687 162.343 26.1378 162.221 26.3594C162.102 26.581 162.042 26.8494 162.042 27.1648ZM171.314 31.1278C170.675 31.1278 170.121 30.9872 169.652 30.706C169.183 30.4247 168.82 30.0312 168.561 29.5256C168.306 29.0199 168.178 28.429 168.178 27.7528C168.178 27.0767 168.306 26.4844 168.561 25.9759C168.82 25.4673 169.183 25.0724 169.652 24.7912C170.121 24.5099 170.675 24.3693 171.314 24.3693C171.953 24.3693 172.507 24.5099 172.976 24.7912C173.445 25.0724 173.807 25.4673 174.063 25.9759C174.321 26.4844 174.451 27.0767 174.451 27.7528C174.451 28.429 174.321 29.0199 174.063 29.5256C173.807 30.0312 173.445 30.4247 172.976 30.706C172.507 30.9872 171.953 31.1278 171.314 31.1278ZM171.323 29.892C171.669 29.892 171.959 29.7969 172.192 29.6065C172.425 29.4134 172.598 29.1548 172.712 28.831C172.828 28.5071 172.887 28.1463 172.887 27.7486C172.887 27.348 172.828 26.9858 172.712 26.6619C172.598 26.3352 172.425 26.0753 172.192 25.8821C171.959 25.6889 171.669 25.5923 171.323 25.5923C170.968 25.5923 170.672 25.6889 170.436 25.8821C170.203 26.0753 170.029 26.3352 169.912 26.6619C169.799 26.9858 169.742 27.348 169.742 27.7486C169.742 28.1463 169.799 28.5071 169.912 28.831C170.029 29.1548 170.203 29.4134 170.436 29.6065C170.672 29.7969 170.968 29.892 171.323 29.892ZM176.36 33.4545V24.4545H177.877V25.5369H177.966C178.046 25.3778 178.158 25.2088 178.303 25.0298C178.448 24.848 178.644 24.6932 178.891 24.5653C179.138 24.4347 179.454 24.3693 179.837 24.3693C180.343 24.3693 180.799 24.4986 181.205 24.7571C181.614 25.0128 181.938 25.392 182.177 25.8949C182.418 26.3949 182.539 27.0085 182.539 27.7358C182.539 28.4545 182.421 29.0653 182.185 29.5682C181.949 30.071 181.628 30.4545 181.222 30.7188C180.816 30.983 180.356 31.1151 179.841 31.1151C179.466 31.1151 179.155 31.0526 178.908 30.9276C178.661 30.8026 178.462 30.652 178.312 30.4759C178.164 30.2969 178.049 30.1278 177.966 29.9688H177.902V33.4545H176.36ZM177.873 27.7273C177.873 28.1506 177.932 28.5213 178.052 28.8395C178.174 29.1577 178.348 29.4062 178.576 29.5852C178.806 29.7614 179.084 29.8494 179.411 29.8494C179.752 29.8494 180.037 29.7585 180.267 29.5767C180.498 29.392 180.671 29.1406 180.787 28.8224C180.907 28.5014 180.966 28.1364 180.966 27.7273C180.966 27.321 180.908 26.9602 180.792 26.6449C180.675 26.3295 180.502 26.0824 180.272 25.9034C180.042 25.7244 179.755 25.6349 179.411 25.6349C179.081 25.6349 178.802 25.7216 178.571 25.8949C178.341 26.0682 178.167 26.3111 178.047 26.6236C177.931 26.9361 177.873 27.304 177.873 27.7273Z" fill="white"/>
<path d="M37.3998 50.8521C37.3202 50.0599 37.6383 48.6736 38.3274 49.0697C39.0696 49.0697 38.831 50.2976 38.9105 51.0502L39.6792 51.4859C40.1562 52.1592 40.8189 52.4761 41.455 52.3176C41.402 52.5157 41.2694 52.8722 41.2164 53.0306C41.4285 53.0702 41.826 53.189 42.0381 53.2287L41.826 53.4267C41.0839 53.3079 39.7322 52.5553 39.6527 54.2981L38.884 54.1001C38.8045 55.3675 39.0961 56.5954 39.7057 57.5064C40.5008 58.6551 40.0767 60.3979 40.0767 61.8634C40.3418 62.4576 40.6333 63.0913 40.9249 63.6855C40.2888 63.8835 39.8382 63.2101 39.3611 62.6556C39.3081 61.6258 39.2021 60.5959 39.1491 59.5661C38.7515 58.7343 38.3009 57.9818 37.7708 57.348C36.6311 58.6155 35.5709 60.0414 34.8288 61.8634L33.8746 62.0219C34.0867 61.705 34.4842 61.1109 34.6963 60.794C34.2192 60.4771 33.7156 60.3187 33.2385 59.9622C33.7421 59.6849 34.3782 59.6057 34.7758 60.2395C35.3589 58.3382 36.2071 56.635 36.9227 54.813C36.8962 54.3773 36.8697 53.902 36.8432 53.4663H35.5179C35.7565 52.0008 36.6311 51.4066 37.3998 50.8521ZM137.694 65.6263C139.019 65.6263 140.317 65.6263 141.643 65.6263C141.007 68.3593 140.397 71.0924 139.761 73.7858C139.072 71.0924 138.383 68.3593 137.694 65.6263ZM146.838 65.9036C147.341 65.9828 147.845 65.864 148.322 66.1412C148.295 66.5769 148.216 67.4879 148.189 67.9632L148.083 68.2009L147.951 68.3989H147.262L147.05 68.2009L146.546 67.6068L147.315 67.5671C147.156 66.9334 146.997 66.4185 146.838 65.9036ZM147.659 66.8146C148.746 66.8542 147.156 68.2405 147.659 66.8146ZM137.137 97.9077C137.906 94.739 138.621 91.5306 139.39 88.3619C140.211 91.5306 141.007 94.739 141.828 97.9077C140.264 97.9077 138.701 97.9077 137.137 97.9077Z" fill="white"/>
<path d="M91.7344 54.7338H93.2187C92.7151 55.6448 92.2645 56.8727 91.3634 56.635C91.4429 55.9617 91.5754 55.3279 91.7344 54.7338ZM86.2214 54.7338H87.5732L88.7659 56.9915L89.9586 54.7338H91.2838C90.6212 56.0013 89.9321 57.2688 89.2695 58.5759C89.2695 59.3681 89.2695 60.1206 89.2695 60.9128H88.2358C88.2358 60.1206 88.2358 59.3681 88.2358 58.5759C87.5732 57.2292 86.9106 55.9617 86.2214 54.7338Z" fill="white"/>
<path d="M193.539 56.437C196.136 54.0605 199.317 54.1397 202.232 54.615C204.247 54.9715 206.367 56.1993 207.454 58.8928C208.859 62.1011 207.931 66.0224 207.719 69.508C205.652 69.508 203.558 69.508 201.49 69.4684C201.596 67.686 202.1 65.6659 201.49 63.9627C200.589 62.8141 199.237 63.1309 198.151 63.329C196.905 63.5666 196.11 65.3094 195.977 67.0918C195.341 73.4293 194.811 79.8064 194.202 86.1438C194.149 87.2133 193.99 88.3619 194.334 89.3918C194.758 90.58 195.765 90.58 196.56 90.6196C197.515 90.6196 198.734 90.6592 199.29 89.2333C199.9 87.4905 200.059 85.5101 200.351 83.6088C198.787 82.777 197.25 81.9056 195.686 81.1135C199.502 79.846 203.319 78.6181 207.136 77.311C206.765 81.3511 206.5 85.4308 205.97 89.4314C205.572 92.402 204.724 95.4123 202.948 97.0759C200.669 99.2148 197.859 99.0168 195.288 98.9772C193.194 98.9772 190.888 98.2642 189.431 95.8084C187.761 93.0754 187.708 89.0749 187.973 85.5893C188.583 79.0934 189.166 72.5579 189.802 66.1016C190.199 62.3388 191.339 58.4967 193.539 56.437ZM41.9851 56.3182C41.9851 55.7636 41.9851 55.2487 41.9851 54.6942C43.6549 54.6942 45.3247 54.6942 46.9945 54.6942V56.3182H45.0066C45.0066 57.8233 45.0066 59.3285 45.0066 60.8732H43.9729C43.9729 59.3681 43.9729 57.8233 43.9729 56.3182H41.9851ZM47.4716 54.6942C48.8763 54.7338 50.2811 54.615 51.6593 54.7338C52.6135 54.8922 52.5075 56.5558 52.5075 57.5857C52.4544 58.6155 52.7195 60.1206 51.9243 60.6752C50.7581 60.9524 49.5919 60.794 48.4257 60.794C47.9486 60.794 47.5511 60.2395 47.4981 59.5265C47.4186 57.9421 47.4716 56.3182 47.4716 54.6942ZM48.4787 56.3182C48.4787 57.3084 48.4787 58.259 48.5052 59.2492C49.5124 59.2492 50.4931 59.2492 51.4738 59.2492C51.4738 58.259 51.4738 57.2688 51.4738 56.3182C50.4666 56.3182 49.4859 56.3182 48.4787 56.3182ZM66.1839 54.6942H67.2176C67.2176 56.1993 67.2176 57.7441 67.2176 59.2492C68.0127 59.2492 68.8078 59.2492 69.603 59.2096C69.4705 59.6057 69.1789 60.3979 69.0464 60.794C68.0922 60.8336 67.1645 60.8336 66.2104 60.794C66.1839 58.8135 66.1839 56.7539 66.1839 54.6942ZM71.6173 55.2091C72.439 54.2981 73.6052 54.8526 74.5594 54.7338C74.5594 56.7935 74.5594 58.8532 74.5594 60.8732H73.5257C73.5257 60.4771 73.5257 59.6849 73.5257 59.2889C72.704 59.2889 71.8824 59.2889 71.0607 59.2889L70.4246 60.8732H69.2054C70.0271 58.9324 70.6897 56.9519 71.6173 55.2091ZM72.28 56.2786C72.0944 56.7143 71.9089 57.15 71.7499 57.5857H73.5257C73.5257 57.2292 73.5257 56.5954 73.5257 56.239L72.28 56.2786ZM75.169 54.5358L76.2557 54.8526C77.2628 56.0409 78.164 57.4272 79.1447 58.6947C79.1447 57.348 79.1447 56.0013 79.1447 54.6546H80.1518C80.1518 56.7143 80.1518 58.7343 80.1518 60.794L79.1712 60.8336C78.164 59.4869 77.1568 58.1402 76.1496 56.7935C76.1496 58.1402 76.1496 59.4869 76.1496 60.794H75.116C75.1425 58.7343 75.1425 56.635 75.169 54.5358ZM80.7084 54.6546C82.3782 54.6546 84.048 54.6546 85.7443 54.6546C85.7178 55.0507 85.6383 55.8825 85.6118 56.2786C84.3131 56.2786 83.0144 56.2786 81.7156 56.2786C81.7156 57.2292 81.7156 58.2194 81.7156 59.2096C83.0144 59.2492 84.3131 59.2492 85.6118 59.2096C85.6648 59.7642 85.7178 60.2791 85.7708 60.8336C84.4191 60.794 83.0674 60.8732 81.7156 60.8336C81.2915 60.9128 81 60.3979 80.8145 59.9226C80.6289 58.1402 80.735 56.3578 80.7084 54.6546ZM153.543 56.0013C155.823 54.2189 158.526 54.1397 161.018 54.7338C162.714 55.1299 164.516 56.3578 165.285 58.8135C166.054 61.2693 166.027 64.1608 165.842 66.8542C163.827 66.8542 161.813 66.8542 159.798 66.8542C159.745 65.4679 160.17 63.5666 159.215 62.7348C158.235 62.1803 156.883 62.2595 156.22 63.6459C155.664 65.2302 155.796 67.1711 156.538 68.5574C158.394 72.3995 161.15 75.0929 162.687 79.2914C164.41 83.4108 164.278 88.8372 162.899 93.1546C161.68 96.7987 158.924 98.6207 156.3 98.7791C153.835 98.9375 151.025 98.8583 149.091 96.2837C147.341 93.8676 147.103 89.9463 147.553 86.6191C149.541 85.9062 151.555 85.3516 153.57 84.6387C153.49 86.1834 153.199 87.7678 153.437 89.3125C153.835 91.0157 155.319 90.7781 156.273 90.5404C157.97 90.0255 158.076 86.7776 157.625 84.7971C156.618 81.6284 154.657 79.5291 153.119 76.9941C151.37 74.1423 149.753 70.617 149.806 66.5769C149.7 62.418 151.052 58.0214 153.543 56.0013ZM163.88 98.6207C165.205 83.9653 166.531 69.2703 167.882 54.615C170.109 54.615 172.335 54.615 174.588 54.615C173.263 69.2703 171.938 83.9653 170.612 98.6207C168.359 98.6207 166.133 98.6207 163.88 98.6207ZM175.595 54.615C180.525 54.615 185.455 54.615 190.385 54.615C190.067 57.5064 189.802 60.3979 189.484 63.2894C186.807 63.2894 184.103 63.2894 181.426 63.2894C181.188 66.2997 180.949 69.2703 180.737 72.3202C182.911 72.1618 185.11 72.3995 187.31 72.241C187.072 75.2117 186.754 78.1824 186.489 81.1531C184.289 81.1531 182.089 81.1531 179.916 81.1531C179.624 84.1238 179.332 87.0944 179.041 90.0651C181.718 90.0255 184.395 90.0651 187.098 90.0651C186.886 92.9566 186.621 95.8084 186.409 98.6999C181.479 98.7395 176.549 98.7395 171.62 98.6999C172.918 84.0049 174.297 69.3099 175.595 54.615ZM210.21 54.6546H225C224.708 57.5461 224.39 60.4375 224.125 63.329H216.068C215.909 65.349 215.75 67.3691 215.617 69.3892C213.364 69.508 211.138 69.508 208.885 69.4288C209.362 64.4776 209.813 59.5661 210.21 54.6546ZM114.025 65.6263C115.986 65.6263 117.921 65.6263 119.856 65.6263C119.114 66.0224 118.425 66.5373 117.736 67.0918C117.364 70.5774 116.967 74.063 116.596 77.5486C117.974 81.0342 120.333 83.1335 122.347 85.7081C123.195 86.7776 124.15 88.0847 124.097 89.9067C124.15 91.0553 123.858 92.4813 123.01 92.7585C122.162 93.0358 121.155 93.1546 120.465 92.2832C119.829 90.9761 119.935 89.2729 119.829 87.7678C118.451 88.0054 117.073 88.2431 115.721 88.56C115.827 91.0553 115.96 93.7884 117.126 95.7688C117.762 96.9175 118.743 97.4324 119.67 97.9077C116.516 97.9473 113.389 97.9473 110.261 97.9077C109.599 91.5703 108.936 85.2724 108.247 78.935C107.584 85.2724 106.869 91.5703 106.179 97.9077C104.775 97.9077 103.396 97.9077 101.992 97.9077C100.985 87.1736 99.8978 76.4396 98.9172 65.6659C100.216 65.6659 101.515 65.6659 102.84 65.6659C103.423 71.9242 103.98 78.1824 104.457 84.4802C105.093 78.222 105.808 71.9638 106.498 65.6659H110.394C111.03 71.9242 111.586 78.1824 112.249 84.401C112.779 78.1032 113.389 71.8845 114.025 65.6263ZM123.964 65.6263C125.607 65.6659 127.251 65.6263 128.92 65.6263C128.92 76.3604 128.92 87.134 128.92 97.9077C127.357 97.9077 125.793 97.9077 124.229 97.8681C125.687 97.3928 127.118 96.2045 127.701 94.026C128.549 90.8177 128.39 86.8172 126.88 84.0841C125.157 80.7966 122.612 78.7765 120.678 75.7266C119.882 74.4987 119.723 72.0034 120.837 71.0924C121.605 70.617 122.612 70.5774 123.301 71.3696C123.805 72.1618 123.779 73.3501 123.938 74.3403C125.289 74.1423 126.641 73.9442 127.993 73.7858C127.754 71.6469 127.542 69.2703 126.482 67.6068C125.819 66.4977 124.865 66.062 123.964 65.6263ZM33 65.6263C35.4119 65.7055 37.8504 65.4679 40.2623 65.7847C41.7465 65.9432 43.3633 66.9334 44.026 69.0723C44.9801 72.0034 44.7416 75.3701 44.6621 78.5389C44.5826 80.9946 43.6814 83.2524 42.2501 84.5198C42.8863 88.2827 43.6019 92.006 44.238 95.7688C45.4837 85.7081 46.7559 75.687 48.0017 65.6263C49.5124 65.6263 51.0232 65.6263 52.5075 65.6263C53.7797 75.687 55.1049 85.7477 56.2711 95.848C56.4567 85.8269 56.2976 75.7662 56.3506 65.7055C57.7024 65.7055 59.0806 65.7055 60.4324 65.7055C60.4324 76.4396 60.4324 87.1736 60.4324 97.9473C57.8084 97.9473 55.1579 97.9473 52.534 97.9473C52.2954 96.0065 52.0569 94.026 51.8183 92.0852C50.7846 92.0852 49.7245 92.0852 48.6908 92.0852C48.4257 94.026 48.2137 95.9669 47.9752 97.9473H40.4743C39.7322 93.7091 38.9636 89.5106 38.2214 85.2724C37.8504 85.2724 37.4793 85.2724 37.1347 85.2724C37.1347 89.5106 37.1347 93.7488 37.1347 97.9869H33C33 87.2529 33 76.5188 33 65.7847M37.0817 70.7359C37.0817 73.9442 37.0552 77.1526 37.0817 80.3609C38.2214 80.2025 39.9972 80.9946 40.5273 78.9746C40.7394 76.7961 40.7394 74.578 40.5273 72.3995C40.1033 70.1814 38.2214 70.8547 37.0817 70.7359ZM50.2015 75.3305C49.963 79.3707 49.4064 83.3316 49.0088 87.3321H51.5003C51.0232 83.3316 50.8907 79.2518 50.2015 75.3305ZM61.4925 65.6659C63.1358 65.7451 64.7791 65.5471 66.3959 65.7847C67.4561 70.8547 68.3308 76.0435 69.4174 81.1135C69.5235 75.9643 69.444 70.8151 69.4705 65.6659C70.7692 65.6659 72.0679 65.6659 73.3401 65.6659C73.3666 76.4 73.3401 87.134 73.3401 97.9077H69.3644C68.0392 91.5306 66.714 85.1536 65.3887 78.8161C65.3357 85.1932 65.3622 91.5703 65.3622 97.9473H61.4925C61.4925 87.134 61.4925 76.4 61.4925 65.6659ZM74.3738 65.6659C77.2098 65.7847 80.0723 65.3094 82.8553 66.062C84.5251 66.5769 85.7973 68.6366 85.9829 71.1716C86.2479 74.4195 86.4335 78.6181 84.2866 80.5589C85.6648 81.5888 86.2744 83.8861 86.2744 86.1042C86.2744 89.0749 86.5395 92.3228 85.4793 95.0163C84.7372 96.9175 83.1999 97.5908 81.8216 97.7493C79.3567 98.0265 76.8653 97.8285 74.4003 97.9077C74.4003 87.134 74.4003 76.4 74.3738 65.6659ZM78.4821 70.3794C78.4821 73.0728 78.4821 75.7266 78.4821 78.3804C79.5687 78.1824 81.212 78.935 81.8481 77.1526C82.1397 75.489 82.0867 73.7066 81.9277 72.043C81.5036 69.8645 79.6218 70.5774 78.4821 70.3794ZM78.4821 83.1731C78.4821 86.4607 78.4821 89.7482 78.4821 93.0754C79.6483 92.917 81.3711 93.6299 82.0072 91.7287C82.3517 89.471 82.2457 87.0548 82.0867 84.7575C81.5831 82.5394 79.6483 83.3712 78.4821 83.1731ZM90.1441 66.0224C92.8741 64.9133 96.5583 64.9926 98.3341 68.8346C99.1292 70.7359 99.2617 73.0332 99.2617 75.2117C99.2352 79.8064 99.2617 84.3614 99.2617 88.9561C99.2087 91.4514 98.8642 94.1845 97.5654 95.9273C96.1342 97.8681 94.1198 98.185 92.2645 98.0265C90.6212 97.9077 88.8454 97.0759 87.8647 94.9766C86.672 92.5605 86.6985 89.4314 86.725 86.5399C86.778 81.9452 86.619 77.3902 86.8045 72.7956C86.9105 69.8249 88.1563 66.9334 90.1441 66.0224ZM91.9729 71.0131C90.8597 71.6073 90.8597 73.667 90.8597 75.1721C90.9127 80.2421 90.7537 85.312 90.9393 90.382C91.0188 93.0754 93.4837 93.5903 94.5969 92.006C95.1535 91.0157 95.18 89.669 95.18 88.4808C95.18 83.8861 95.18 79.3311 95.18 74.7364C95.1535 73.5085 95.074 72.0034 94.3319 71.2508C93.5897 70.6963 92.7416 70.6171 91.9729 71.0131ZM145.247 66.6165C145.327 65.9432 145.724 65.7055 146.069 65.4283C146.202 72.3202 146.096 79.2122 146.122 86.1042C146.096 90.1839 146.202 94.2241 146.069 98.3038C144.426 92.6001 143.154 86.6587 141.643 80.9154C142.835 76.1227 144.028 71.33 145.247 66.6165ZM208.143 76.9941C212.728 75.489 217.287 73.9838 221.872 72.4391C221.607 75.3701 221.342 78.2616 221.051 81.1927C218.877 81.2323 216.678 81.1135 214.504 81.2323C214.133 84.1634 213.921 87.134 213.603 90.0651C216.28 90.0651 218.957 90.0651 221.66 90.0651C221.422 92.9566 221.183 95.8084 220.971 98.6999C216.041 98.6999 211.112 98.6999 206.182 98.6999C206.818 91.491 207.48 84.2426 208.143 76.9941Z" fill="white"/>
<path d="M52.958 54.7338H54.0712C54.6808 56.2786 55.2904 57.8233 55.9001 59.3681C56.5097 57.8233 57.1458 56.2786 57.7289 54.7338H58.8421C58.8421 56.7935 58.8421 58.8532 58.8421 60.8732H57.8084C57.8084 59.7642 57.8084 58.6551 57.8084 57.5064C57.3578 58.6155 56.9337 59.7246 56.4832 60.8336H55.2374C54.8134 59.7246 54.3628 58.6155 53.9387 57.5064C53.9387 58.6155 53.9387 59.7246 53.9387 60.8336L52.905 60.8732C52.905 58.8135 52.905 56.7539 52.905 54.6942M60.6709 54.6942C62.3407 54.6942 64.037 54.6942 65.7068 54.6942L65.5743 56.3182C64.2755 56.3182 62.9768 56.3182 61.7046 56.3182C61.7046 57.3084 61.7046 58.259 61.7046 59.2492C62.9768 59.2492 64.2755 59.2492 65.5478 59.2492C65.6008 59.7642 65.6538 60.3187 65.7068 60.8336C64.3816 60.794 63.0298 60.9128 61.7046 60.8336C61.1745 60.9128 60.7239 60.3187 60.6974 59.5661C60.6974 59.5661 60.6974 59.5661 60.6974 59.5265C60.6179 57.9025 60.6974 56.2786 60.6709 54.6942ZM94.0668 58.5363C92.8211 58.3778 92.8211 54.9319 94.0668 54.7338C95.4451 54.615 96.8233 54.7338 98.2016 54.6942C98.175 55.0903 98.0955 55.9221 98.069 56.3182C96.7703 56.3182 95.4981 56.3182 94.1993 56.3182V56.9519C95.339 56.9915 96.4522 56.8727 97.5919 57.0311C98.4401 57.7441 98.4666 60.0018 97.5919 60.6752C96.1872 60.9524 94.7294 60.7148 93.3247 60.794C93.3777 60.2395 93.4042 59.7246 93.4572 59.2096C94.7824 59.0116 96.2402 59.6849 97.4594 58.7739C96.3197 58.4571 95.18 58.6947 94.0668 58.5363ZM132.976 65.3094C133.426 65.5471 133.744 66.1016 133.85 66.775C135.017 71.4488 136.209 76.1227 137.402 80.8362C135.918 86.6191 134.619 92.5209 133.002 98.2642C132.896 87.2925 132.923 76.3208 132.976 65.3094Z" fill="white"/>
</svg>
